<?xml version="1.0" encoding="utf-8"?>
<!-- Generator: Adobe Illustrator 26.5.0, SVG Export Plug-In . SVG Version: 6.00 Build 0)  -->
<svg version="1.1" id="Слой_1" focusable="false"
	 xmlns="http://www.w3.org/2000/svg" xmlns:xlink="http://www.w3.org/1999/xlink" x="0px" y="0px" viewBox="0 0 14 14"
	 style="enable-background:new 0 0 14 14;" xml:space="preserve">
<style type="text/css">
	.st0{fill:#4C5395;}
</style>
<path class="st0" d="M6.6,11.5c-0.4-0.5-1.2-1.1-1.9-1.4C3.9,9.7,3.2,9.5,2.4,9.5c-0.2,0-0.3,0-0.3,0c0,0,0-1.6,0-3.6l0-3.6l0.1,0
	c0.9,0.1,1.9,0.4,2.6,0.9c0.6,0.4,1.3,1,1.7,1.6l0.1,0.1v3.4c0,1.9,0,3.4,0,3.4C6.7,11.7,6.6,11.6,6.6,11.5L6.6,11.5z M7.3,8.3V4.9
	l0.2-0.3c0.3-0.3,0.8-0.9,1.1-1.1c0.9-0.7,1.9-1.1,3.1-1.2l0.1,0v3.6v3.6l-0.2,0c-1.6,0.1-3,0.8-4.1,1.9l-0.3,0.3V8.3L7.3,8.3z
	 M8.3,11.5c0.6-0.6,1.5-1.1,2.3-1.3c0.4-0.1,1-0.2,1.4-0.2c0.2,0,0.3,0,0.4-0.1c0-0.1,0-0.1,0-3l0-2.9l0.1,0c0,0,0.2,0,0.3,0.1
	L13,4.1v3.7c0,2,0,3.7,0,3.7c0,0-0.2,0-0.3-0.1c-0.7-0.1-1.2-0.2-1.9-0.2c-0.9,0-1.5,0.1-2.3,0.4l-0.3,0.1L8.3,11.5L8.3,11.5z
	 M5.6,11.6c-0.3-0.1-0.9-0.3-1.3-0.3c-0.5-0.1-0.9-0.1-1.5-0.1c-0.6,0-1,0.1-1.5,0.2c-0.1,0-0.3,0.1-0.3,0.1l-0.1,0l0-3.7L1,4L1.3,4
	c0.2,0,0.3-0.1,0.3-0.1c0,0,0,0.6,0,2.9c0,3.2,0,3,0.1,3.1c0,0,0.1,0,0.4,0.1c1.1,0.1,2.2,0.4,3.1,1.1c0.2,0.1,0.6,0.5,0.7,0.6
	C5.9,11.7,5.9,11.7,5.6,11.6L5.6,11.6z"/>
</svg>
