<?xml version="1.0" encoding="UTF-8"?>
<svg id="_Слой_2" data-name="Слой 2" xmlns="http://www.w3.org/2000/svg" viewBox="0 0 32 29.99">
  <defs>
    <style>
      .cls-1 {
        fill: #4c5395;
      }
    </style>
  </defs>
  <g id="Your_Icons" data-name="Your Icons">
    <path class="cls-1" d="M5,24c1.7,0,3-1.3,3-3V13c0-1.6-1.3-3-2.9-3C5.6,5.4,9.5,2,14,2h4c4.6,0,8.4,3.4,8.9,8-1.6,0-2.9,1.4-2.9,3v8c0,1.6,1.2,2.9,2.8,3-.4,1.2-1.6,2-2.8,2h-4.2c-.6-1.6-2.3-2.4-3.8-1.8-1.6,.6-2.4,2.3-1.8,3.8s2.3,2.4,3.8,1.8c.9-.3,1.5-1,1.8-1.8h4.2c2.5,0,4.6-1.9,4.9-4.4,1.9-.8,3.1-2.6,3.1-4.6v-4c0-2-1.2-3.8-3-4.6-.3-5.8-5.1-10.4-11-10.4h-4C8.1,0,3.3,4.6,3,10.4c-1.8,.8-3,2.6-3,4.6v4c0,2.8,2.2,5,5,5Z"/>
  </g>
</svg>