<?xml version="1.0" encoding="UTF-8"?>
<svg id="_Слой_2" data-name="Слой 2" xmlns="http://www.w3.org/2000/svg" viewBox="0 0 666.67 666.67">
  <defs>
    <style>
      .cls-1 {
        fill: none;
        stroke: #fff;
        stroke-miterlimit: 133.33;
        stroke-width:60;
      }
    </style>
  </defs>
  <g id="_Слой_1-2" data-name="Слой 1">
    <path class="cls-1" d="M33.33,166.67c0-73.64,59.7-133.33,133.33-133.33H500c73.64,0,133.33,59.7,133.33,133.33V500c0,73.64-59.7,133.33-133.33,133.33H166.67c-73.64,0-133.33-59.7-133.33-133.33V166.67Z"/>
    <path class="cls-1" d="M475.8,304.59c13.02-13.02,13.02-34.12,0-47.14l-59.72-59.72c-13.02-13.02-34.12-13.02-47.14,0l-136.9,136.9-20.45,123.63c-.37,2.26,1.58,4.21,3.84,3.83l123.47-20.6,136.9-136.9Z"/>
  </g>
</svg>