<?xml version="1.0" encoding="utf-8"?>
<!-- Generator: Adobe Illustrator 26.5.0, SVG Export Plug-In . SVG Version: 6.00 Build 0)  -->
<svg version="1.1" id="Слой_1" xmlns="http://www.w3.org/2000/svg" xmlns:xlink="http://www.w3.org/1999/xlink" x="0px" y="0px"
	 viewBox="0 0 500 500" style="enable-background:new 0 0 500 500;" xml:space="preserve">
<style type="text/css">
	.st0{fill:none;}
	.st1{fill:#323366;}
	.st2{fill:#D6151A;}
</style>
<g id="Исток2">
	<g>
		<path class="st0" d="M148,94.6c-11.9,0-23.7,1.7-35,5c2.7-0.2,5.5-0.3,8.3-0.3c45.4,0,85,30.5,96.6,74.2h47.6
			C246.1,126.1,199.3,94.6,148,94.6z"/>
		<path class="st0" d="M112.3,147c-23.4,0-42.4,19-42.4,42.4c0,14.5,7.2,27.7,19.2,35.4v-51.4h62.5C145.1,157.5,129.7,147,112.3,147
			z"/>
		<path class="st0" d="M63.3,189.3c0-27,22-49,49-49c21,0,39.5,13.2,46.3,33h52.5c-11.4-40-48-67.7-89.8-67.7
			c-17.6,0-34.5,4.8-49.2,14c-1.1,0.9-2.3,1.7-3.4,2.6l-0.2,0.1c-1.9,1.4-3.8,2.8-5.7,4.3c-7.1,6.3-13.4,13.3-18.9,20.9
			c-2,3-3.9,6.2-5.5,9.5l-0.1,0.2c-1.5,2.6-2.9,5.2-4.2,7.8c-4.2,10.8-6.4,22.4-6.4,34c0,39.6,24.5,74.4,61.3,87.8v-54.5
			C73.2,223.9,63.3,207.5,63.3,189.3z"/>
		<path class="st0" d="M89.1,293.9C51.5,281.3,25.5,248,21.7,209c-0.4,4.2-0.6,8.4-0.6,12.6c0,70,56.9,126.9,126.9,126.9
			c33.5,0,65.8-13.4,89.5-37H89.1V293.9z"/>
		<path class="st1" d="M360.5,220.7c-6.7-42.1-28.3-80.7-60.8-108.7c-32.9-28.3-74.9-43.8-118.3-43.8C81.4,68.2,0,149.6,0,249.6
			c0,100,81.4,181.4,181.4,181.4c39.9,0,77.8-12.7,109.5-36.7c30.7-23.2,53.5-56.3,64.4-93c0.7-2.4-0.7-5-3.1-5.7
			c-2.4-0.7-5,0.7-5.7,3.1c-21.4,72.5-89.3,123.1-165,123.1c-94.9,0-172.2-77.2-172.2-172.2c0-16.5,2.4-32.6,6.7-47.7
			c-1,6.5-1.5,13.1-1.5,19.7c0,73.6,59.9,133.5,133.5,133.5c37.4,0,73.3-15.9,98.7-43.6h-9.1c-23.8,23.6-56,37-89.5,37
			c-70,0-126.9-56.9-126.9-126.9c0-4.2,0.2-8.4,0.6-12.6c3.8,39,29.8,72.3,67.4,84.9v-7c-36.8-13.4-61.3-48.2-61.3-87.8
			c0-11.6,2.2-23.2,6.4-34c1.3-2.6,2.7-5.2,4.2-7.8l0.1-0.2c1.6-3.3,3.5-6.4,5.5-9.5c5.5-7.6,11.8-14.6,18.9-20.9
			c1.8-1.5,3.7-2.9,5.7-4.3l0.2-0.1c1.1-0.9,2.3-1.8,3.4-2.6c14.7-9.2,31.6-14,49.2-14c41.8,0,78.4,27.7,89.8,67.7h6.8
			c-11.6-43.8-51.2-74.2-96.6-74.2c-2.8,0-5.5,0.1-8.3,0.3c11.3-3.2,23.1-5,35-5c51.3,0,98.1,31.6,117.5,78.8h7.1
			c-9.6-24.8-26.2-45.9-48-61.3C202,96.3,175.5,88,148,88c-14.2,0-28.2,2.3-41.5,6.7c22.7-11,48.1-17.2,75-17.2
			c85.1,0,156.6,60.9,170,144.7c0.4,2.5,2.8,4.2,5.3,3.8C359.2,225.6,360.9,223.3,360.5,220.7z"/>
		<path class="st1" d="M112.3,140.4c-27,0-49,22-49,49c0,18.1,9.8,34.5,25.8,43.1v-7.6c-11.9-7.8-19.2-21-19.2-35.4
			c0-23.4,19-42.4,42.4-42.4c17.4,0,32.8,10.5,39.3,26.4h7C151.8,153.6,133.3,140.4,112.3,140.4z"/>
	</g>
	<g id="Исток1">
		<g id="Слой_2_00000074442891991102529850000016102478595943311259_">
			<g>
				<path class="st2" d="M123.9,187.1c0,6.8-4.9,12-11.7,12c-6.5,0-11.6-5-11.6-12c0-6.7,5-11.6,11.6-11.6
					C119,175.5,123.9,180.4,123.9,187.1z M103.3,216.2h17.9v86.9h-17.9V216.2z"/>
				<path class="st2" d="M137.7,275h18.2c2.6,9.6,9.7,14.1,24.7,14.1c11.6,0,18.7-3.4,18.7-10c0-7.2-8.2-8.4-22.8-11.8
					c-24.4-6.1-34.6-10.9-34.6-25.4c0-17.5,14.9-27.6,36.6-27.6c22.2,0,34.8,10.5,37.9,26.3h-18c-2.5-7.1-9.2-10.5-20.3-10.5
					c-11.6,0-18.3,3.9-18.3,10c0,5.5,5.4,7,20.5,10.5c23.6,5.5,37.1,9.6,37.1,26.6c0,18.7-16.7,27.8-37.3,27.8
					C157.5,304.9,141,293.9,137.7,275z"/>
				<path class="st2" d="M300.3,298.6c-4.7,2.9-14.9,6.3-24.7,6.3c-17.9,0-31.7-11.2-31.7-35.3v-36.9h-16.1v-16.7h16.1v-19.7
					l17.9-3.9v23.7h35.7v16.7h-35.7v35.8c0,12.6,5.8,19.6,17.1,19.6c5.5,0,11.7-1.8,18.4-4.2L300.3,298.6z"/>
				<path class="st2" d="M399.6,259.6c0,26.1-19.7,45.3-45,45.3c-25.1,0-45-19.5-45-45.3c0-26.2,20.3-45.3,45-45.3
					C379.5,214.2,399.6,233.4,399.6,259.6z M327.5,259.6c0,16.7,11.8,28.3,27,28.3s27-11.6,27-28.3s-12-28.3-27-28.3
					S327.5,242.9,327.5,259.6z"/>
				<path class="st2" d="M477,303.1L436,262.9v40.2h-17.9V181.4H436v72.4l37.7-37.7h22.9l-42.5,41.2l45.9,45.7H477z"/>
			</g>
		</g>
	</g>
</g>
</svg>
