<?xml version="1.0" encoding="utf-8"?>
<!-- Generator: Adobe Illustrator 26.5.0, SVG Export Plug-In . SVG Version: 6.00 Build 0)  -->
<svg version="1.1" id="Слой_1" xmlns="http://www.w3.org/2000/svg" xmlns:xlink="http://www.w3.org/1999/xlink" x="0px" y="0px"
	 viewBox="0 0 800 800" style="enable-background:new 0 0 800 800;" xml:space="preserve">
<style type="text/css">
	.st0{fill-rule:evenodd;clip-rule:evenodd;fill:#AAAAAA;}
</style>
<path class="st0" d="M333.3,166.7c-92,0-166.7,74.6-166.7,166.7c0,92,74.6,166.7,166.7,166.7c46,0,87.7-18.6,117.8-48.8
	C481.4,421,500,379.4,500,333.3C500,241.3,425.4,166.7,333.3,166.7z M100,333.3C100,204.5,204.5,100,333.3,100
	c128.9,0,233.3,104.5,233.3,233.3c0,52.4-17.3,100.8-46.5,139.7l170,170c13,13,13,34.1,0,47.1c-13,13-34.1,13-47.1,0l-170-170
	c-38.9,29.2-87.3,46.5-139.7,46.5C204.5,566.7,100,462.2,100,333.3z"/>
</svg>
