<?xml version="1.0" encoding="UTF-8"?>
<svg id="_Слой_2" data-name="Слой 2" xmlns="http://www.w3.org/2000/svg" viewBox="0 0 575.04 500.06">
  <defs>
    <style>
      .cls-1 {
        fill: #c9c9c9;
      }
    </style>
  </defs>
  <g id="_Слой_1-2" data-name="Слой 1">
    <path class="cls-1" d="M50.04,225.03h500c13.81,0,25,11.19,25,25s-11.19,25-25,25H50.04c-13.81,0-25-11.19-25-25s11.19-25,25-25Z"/>
    <path class="cls-1" d="M60.39,250.03l207.35,207.3c9.78,9.78,9.78,25.62,0,35.4s-25.62,9.78-35.4,0L7.34,267.73c-9.78-9.75-9.8-25.58-.04-35.36,.01-.01,.03-.03,.04-.04L232.34,7.33c9.78-9.78,25.62-9.78,35.4,0,9.78,9.78,9.78,25.62,0,35.4L60.39,250.03Z"/>
  </g>
</svg>