<?xml version="1.0" encoding="utf-8"?>
<!-- Generator: Adobe Illustrator 26.5.0, SVG Export Plug-In . SVG Version: 6.00 Build 0)  -->
<svg version="1.1" id="Слой_1" xmlns="http://www.w3.org/2000/svg" xmlns:xlink="http://www.w3.org/1999/xlink" x="0px" y="0px"
	 viewBox="0 0 800 800" style="enable-background:new 0 0 800 800;" xml:space="preserve">
<style type="text/css">
	.st0{fill:none;stroke:#FFFFFF;stroke-width:75;stroke-miterlimit:133.3333;}
</style>
<circle class="st0" cx="399.4" cy="400.6" r="109.9"/>
<path class="st0" d="M464.1,39.7c-13.5-5.6-30.5-5.6-64.7-5.6s-51.2,0-64.7,5.6c-18,7.4-32.2,21.7-39.7,39.7
	c-3.4,8.2-4.7,17.7-5.2,31.6c-0.8,20.4-11.2,39.4-29,49.6c-17.7,10.2-39.3,9.8-57.4,0.3c-12.3-6.5-21.2-10.1-30-11.3
	c-19.3-2.5-38.8,2.7-54.2,14.5c-11.6,8.9-20.1,23.7-37.2,53.2C65,247,56.4,261.8,54.5,276.2C52,295.5,57.2,315,69,330.4
	c5.4,7,13,13,24.8,20.4c17.3,10.9,28.5,29.4,28.5,49.9c0,20.5-11.1,39-28.5,49.9C82,457.9,74.4,463.8,69,470.9
	C57.2,486.3,52,505.8,54.5,525c1.9,14.5,10.4,29.2,27.5,58.8c17.1,29.6,25.6,44.4,37.2,53.2c15.4,11.8,34.9,17.1,54.2,14.5
	c8.8-1.2,17.7-4.8,30-11.3c18.1-9.6,39.7-9.9,57.4,0.3c17.7,10.2,28.2,29.1,29,49.6c0.5,13.9,1.8,23.4,5.2,31.6
	c7.4,18,21.7,32.2,39.7,39.7c13.5,5.6,30.5,5.6,64.7,5.6s51.2,0,64.7-5.6c18-7.4,32.2-21.7,39.7-39.7c3.4-8.2,4.7-17.7,5.2-31.6
	c0.8-20.4,11.2-39.4,29-49.6c17.7-10.2,39.3-9.8,57.4-0.3c12.3,6.5,21.2,10.1,30,11.3c19.3,2.5,38.8-2.7,54.2-14.5
	c11.6-8.9,20.1-23.7,37.2-53.2c17.1-29.6,25.6-44.4,27.5-58.8c2.5-19.3-2.7-38.8-14.5-54.2c-5.4-7-13-13-24.8-20.4
	c-17.3-10.9-28.5-29.4-28.5-49.9s11.1-39,28.5-49.9c11.8-7.4,19.4-13.3,24.8-20.4c11.8-15.4,17.1-34.9,14.5-54.2
	c-1.9-14.5-10.4-29.2-27.5-58.8c-17.1-29.6-25.6-44.4-37.2-53.2c-15.4-11.8-34.9-17.1-54.2-14.5c-8.8,1.2-17.7,4.8-30,11.3
	c-18.1,9.6-39.7,9.9-57.4-0.3c-17.7-10.2-28.2-29.1-29-49.6c-0.5-13.9-1.9-23.4-5.2-31.6C496.3,61.4,482.1,47.2,464.1,39.7z"/>
</svg>
