<?xml version="1.0" encoding="UTF-8"?>
<svg id="_Слой_2" data-name="Слой 2" xmlns="http://www.w3.org/2000/svg" viewBox="0 0 500 500">
  <g id="_Слой_1-2" data-name="Слой 1">
    <path fill="#fff" d="M50,200H450c27.61,0,50,22.39,50,50h0c0,27.61-22.39,50-50,50H50c-27.61,0-50-22.39-50-50H0c0-27.61,22.39-50,50-50Zm0,300H450c27.61,0,50-22.39,50-50h0c0-27.61-22.39-50-50-50H50c-27.61,0-50,22.39-50,50H0c0,27.61,22.39,50,50,50ZM0,50H0c0,27.61,22.39,50,50,50H450c27.61,0,50-22.39,50-50h0c0-27.61-22.39-50-50-50H50C22.39,0,0,22.39,0,50Z"/>
  </g>
</svg>