<?xml version="1.0" encoding="utf-8"?>
<!-- Generator: Adobe Illustrator 26.5.0, SVG Export Plug-In . SVG Version: 6.00 Build 0)  -->
<svg version="1.1" id="_Слой_2" xmlns="http://www.w3.org/2000/svg" xmlns:xlink="http://www.w3.org/1999/xlink" x="0px"
	 y="0px" viewBox="0 0 400 728.3" style="enable-background:new 0 0 400 728.3;" xml:space="preserve">
<style type="text/css">
	.st0{fill:#265DAC;}
</style>
<g id="_Слой_1-2">
	<g>
		<path class="st0" d="M200,0C89.6,0.1,0.1,89.6,0,200c0,27.6,22.4,50,50,50s50-22.4,50-50c0-55.2,44.8-100,100-100
			s100,44.8,100,100c0,43.4-25.5,70-67.4,108.6C193.8,344.3,150,384.8,150,450c0,27.6,22.4,50,50,50s50-22.4,50-50
			c0-20.4,19.1-39.1,50.4-67.9c42-38.8,99.6-91.9,99.6-182.1C399.9,89.6,310.4,0.1,200,0z"/>
		<path class="st0" d="M200,593.5c-37.2,0-67.4,30.2-67.4,67.4s30.2,67.4,67.4,67.4s67.4-30.2,67.4-67.4
			C267.3,623.7,237.2,593.6,200,593.5z"/>
	</g>
</g>
</svg>
