<?xml version="1.0" encoding="utf-8"?>
<!-- Generator: Adobe Illustrator 26.5.0, SVG Export Plug-In . SVG Version: 6.00 Build 0)  -->
<svg version="1.1" id="Слой_1" xmlns="http://www.w3.org/2000/svg" xmlns:xlink="http://www.w3.org/1999/xlink" x="0px" y="0px"
	 viewBox="0 0 11 22" style="enable-background:new 0 0 11 22;" xml:space="preserve">
<style type="text/css">
	.st0{fill:none;}
	.st1{fill-rule:evenodd;clip-rule:evenodd;fill:#AAAAAA;}
</style>
<g id="Icons">
	<g id="Two-Tone" transform="translate(-923.000000, -2015.000000)">
		<g id="Editor" transform="translate(100.000000, 1960.000000)">
			<g id="Two-Tone-_x2F_-Editor-_x2F_-attach_x5F_file" transform="translate(816.000000, 54.000000)">
				<g>
					<polygon id="Path" class="st0" points="0,0 24,0 24,24 0,24 					"/>
					<path id="_xD83D__xDD39_-Primary-Color" class="st1" d="M12.5,23c3,0,5.5-2.5,5.5-5.5V6h-1.5v11.5c0,2.2-1.8,4-4,4s-4-1.8-4-4
						V5c0-1.4,1.1-2.5,2.5-2.5s2.5,1.1,2.5,2.5v10.5c0,0.5-0.4,1-1,1s-1-0.5-1-1V6H10v9.5c0,1.4,1.1,2.5,2.5,2.5s2.5-1.1,2.5-2.5V5
						c0-2.2-1.8-4-4-4S7,2.8,7,5v12.5C7,20.5,9.5,23,12.5,23z"/>
				</g>
			</g>
		</g>
	</g>
</g>
</svg>
