<?xml version="1.0" encoding="utf-8"?>
<!-- Generator: Adobe Illustrator 26.5.0, SVG Export Plug-In . SVG Version: 6.00 Build 0)  -->
<svg version="1.1" id="Слой_1" xmlns="http://www.w3.org/2000/svg" xmlns:xlink="http://www.w3.org/1999/xlink" x="0px" y="0px"
	 viewBox="0 0 48 48" style="enable-background:new 0 0 48 48;" xml:space="preserve">
<style type="text/css">
	.st0{fill:#4C5395;}
</style>
<g>
	<path class="st0" d="M26,3c-0.6,0-1,0.4-1,1v18c0,0.6,0.4,1,1,1h18c0.6,0,1-0.4,1-1C45,11.5,36.5,3,26,3z"/>
	<path class="st0" d="M38,27H21V10c0-0.6-0.4-1-1-1C9.5,9,1,17.5,1,28s8.5,19,19,19s19-8.5,19-19C39,27.4,38.6,27,38,27z"/>
</g>
</svg>
