<?xml version="1.0" encoding="utf-8"?>
<!-- Generator: Adobe Illustrator 26.5.0, SVG Export Plug-In . SVG Version: 6.00 Build 0)  -->
<svg version="1.1" id="Capa_1" xmlns="http://www.w3.org/2000/svg" xmlns:xlink="http://www.w3.org/1999/xlink" x="0px" y="0px"
	 viewBox="0 0 437.1 437.1" style="enable-background:new 0 0 437.1 437.1;" xml:space="preserve">
<style type="text/css">
	.st0{fill:#4C5395;}
</style>
<g>
	<path class="st0" d="M396.3,17.5c0-9.6-7.9-17.5-17.5-17.5H58.3c-9.6,0-17.5,7.9-17.5,17.5v402.1c0,9.6,7.9,17.5,17.5,17.5h320.5
		c9.6,0,17.5-7.9,17.5-17.5V17.5z M361.3,402.1H75.8V35h285.6L361.3,402.1L361.3,402.1z M122.4,119.5c0-9.6,7.9-17.5,17.5-17.5
		h157.3c9.6,0,17.5,7.9,17.5,17.5s-7.9,17.5-17.5,17.5H139.9C130.2,137,122.4,129.1,122.4,119.5z M122.4,212.7
		c0-9.6,7.9-17.5,17.5-17.5h157.3c9.6,0,17.5,7.9,17.5,17.5s-7.9,17.5-17.5,17.5H139.9C130.2,230.2,122.4,222.3,122.4,212.7z
		 M122.4,311.8c0-9.6,7.9-17.5,17.5-17.5h157.3c9.6,0,17.5,7.9,17.5,17.5s-7.9,17.5-17.5,17.5H139.9
		C130.2,329.3,122.4,321.4,122.4,311.8z"/>
</g>
</svg>
