<?xml version="1.0" encoding="utf-8"?>
<!-- Generator: Adobe Illustrator 26.5.0, SVG Export Plug-In . SVG Version: 6.00 Build 0)  -->
<svg version="1.1" id="Слой_1" xmlns="http://www.w3.org/2000/svg" xmlns:xlink="http://www.w3.org/1999/xlink" x="0px" y="0px"
	 viewBox="0 0 52 52" style="enable-background:new 0 0 52 52;" xml:space="preserve">
<style type="text/css">
	.st0{fill-rule:evenodd;clip-rule:evenodd;fill:#4C5395;}
</style>
<g id="Page-1">
	<g id="Data">
		<path id="Shape" class="st0" d="M25.8,13.5c-2.6,0-25.4-0.2-25.4-6.5s22.8-6.5,25.4-6.5S51.2,0.7,51.2,7S28.4,13.5,25.8,13.5z
			 M3.5,7c1.2,1.3,9.2,3.5,22.3,3.5S47,8.3,48.1,7c-1.2-1.3-9.2-3.5-22.3-3.5S4.6,5.6,3.5,7z"/>
		<rect id="Rectangle-path" x="48.2" y="7" class="st0" width="3" height="37.4"/>
		
			<rect id="Rectangle-path_00000028313887830684546580000007038663196746279096_" x="0.4" y="7" class="st0" width="3" height="37.4"/>
		<path id="Shape_00000048502471477667651310000015366670627755442057_" class="st0" d="M25.8,26.6c-6,0-25.4-0.5-25.4-7.3h3
			c0,1.8,8.5,4.3,22.4,4.3s22.4-2.5,22.4-4.3h3C51.2,26.1,31.7,26.6,25.8,26.6z"/>
		<path id="Shape_00000018933857897142136620000016912986690273869986_" class="st0" d="M25.8,39.1c-6,0-25.4-0.5-25.4-7.3h3
			c0,1.8,8.5,4.3,22.4,4.3s22.4-2.5,22.4-4.3h3C51.2,38.5,31.7,39.1,25.8,39.1z"/>
		<path id="Shape_00000042010785825251186090000002875538822838833539_" class="st0" d="M25.8,51.5c-6,0-25.4-0.5-25.4-7.3h3
			c0,1.8,8.5,4.3,22.4,4.3s22.4-2.5,22.4-4.3h3C51.2,50.9,31.8,51.5,25.8,51.5z"/>
	</g>
</g>
</svg>
