<?xml version="1.0" encoding="utf-8"?>
<!-- Generator: Adobe Illustrator 26.5.0, SVG Export Plug-In . SVG Version: 6.00 Build 0)  -->
<svg version="1.1" id="Слой_1" xmlns="http://www.w3.org/2000/svg" xmlns:xlink="http://www.w3.org/1999/xlink" x="0px" y="0px"
	 viewBox="0 0 352.1 352.1" style="enable-background:new 0 0 352.1 352.1;" xml:space="preserve">
<style type="text/css">
	.st0{fill:#4C5395;}
	.st1{fill:#474747;}
</style>
<g>
	<ellipse class="st0" cx="176" cy="115.7" rx="80.3" ry="81.9"/>
	<path class="st0" d="M222.4,191.8C209.3,203.3,193.3,210,176,210s-33.3-6.7-46.4-18.2C60.1,211.9,9.3,276,9.3,352.1h333.5
		C342.8,276,291.9,211.9,222.4,191.8L222.4,191.8z M293.4,315h-86.5v-49.4h86.5V315z"/>
</g>
<path class="st1" d="M263.8,72.1c-2-39.2-34.5-70.3-74.3-70.3h-27c-39.9,0-72.3,31.1-74.3,70.3C76,77.5,67.9,89.7,67.9,103.2v27
	c0,18.9,14.9,33.8,33.8,33.8c11.5,0,20.3-8.8,20.3-20.3v-54c0-10.8-8.8-20.3-19.6-20.3c3.4-31.1,29.7-54.1,60.1-54.1h27
	c31.1,0,56.8,23,60.1,54.1c-10.8,0-19.6,9.5-19.6,20.3v54.1c0,10.8,8.1,19.6,18.9,20.3c-2.7,8.1-10.8,13.5-18.9,13.5h-28.4
	c-4.1-10.8-15.5-16.2-25.7-12.2c-10.8,4.1-16.2,15.5-12.2,25.7c4.1,10.1,15.5,16.2,25.7,12.2c6.1-2,10.1-6.8,12.2-12.2H230
	c16.9,0,31.1-12.8,33.1-29.7c12.8-5.4,20.9-17.6,20.9-31.1v-27C284.1,89.7,276,77.5,263.8,72.1z"/>
</svg>
